<svg id="kity_svg_6" xmlns="http://www.w3.org/2000/svg" xmlns:xlink="http://www.w3.org/1999/xlink" version="1.1" width="707" height="454" style="background: rgb(251, 251, 251); visibility: visible;" viewBox="0 0 707 454"><defs id="kity_defs_7"><linearGradient id="kity_linearGradient_17" x1="0" y1="0" x2="0" y2="1"><stop id="kity_stop_18" offset="0" stop-color="rgb(255, 255, 255)"></stop><stop id="kity_stop_19" offset="1" stop-color="rgb(204, 204, 204)"></stop></linearGradient><marker id="kity_marker_2" orient="auto" refX="6" refY="0" viewBox="-7 -7 14 14" markerWidth="7" markerHeight="7" markerUnits="userSpaceOnUse"><path id="kity_path_3" fill="rgb(115, 161, 191)" stroke="none" d="M6,0A6,6,0,1,1,-6,0A6,6,0,1,1,6,0"></path></marker></defs><g id="kity_g_8"><g id="minder1" text-rendering="optimize-speed"><g id="minder_connect_group1"><path id="kity_path_31" fill="none" stroke="rgb(115, 161, 191)" stroke-width="1" d="M76.50001095980406,304.5000046566129A174,117,0,0,1,250.50001095980406,187.50000465661287"></path><path id="kity_path_33" fill="none" stroke="rgb(115, 161, 191)" stroke-width="1" d="M363.50001095980406,187.50000465661287C383.50001095980406,187.50000465661287,383.50001095980406,83.50000465661287,403.50001095980406,83.50000465661287"></path><path id="kity_path_35" fill="none" stroke="rgb(115, 161, 191)" stroke-width="1" d="M472.50001095980406,83.50000465661287C492.50001095980406,83.50000465661287,492.50001095980406,31.500004656612873,512.5000109598041,31.500004656612873"></path><path id="kity_path_37" fill="none" stroke="rgb(115, 161, 191)" stroke-width="1" d="M472.50001095980406,83.50000465661287C492.50001095980406,83.50000465661287,492.50001095980406,83.50000465661287,512.5000109598041,83.50000465661287"></path><path id="kity_path_39" fill="none" stroke="rgb(115, 161, 191)" stroke-width="1" d="M472.50001095980406,83.50000465661287C492.50001095980406,83.50000465661287,492.50001095980406,135.50000465661287,512.5000109598041,135.50000465661287"></path><path id="kity_path_41" fill="none" stroke="rgb(115, 161, 191)" stroke-width="1" d="M363.50001095980406,187.50000465661287C383.50001095980406,187.50000465661287,383.50001095980406,187.50000465661287,403.50001095980406,187.50000465661287"></path><path id="kity_path_43" fill="none" stroke="rgb(115, 161, 191)" stroke-width="1" d="M363.50001095980406,187.50000465661287C383.50001095980406,187.50000465661287,383.50001095980406,239.50000465661287,403.50001095980406,239.50000465661287"></path><path id="kity_path_45" fill="none" stroke="rgb(115, 161, 191)" stroke-width="1" d="M363.50001095980406,187.50000465661287C383.50001095980406,187.50000465661287,383.50001095980406,291.5000046566129,403.50001095980406,291.5000046566129"></path><path id="kity_path_47" fill="none" stroke="rgb(115, 161, 191)" stroke-width="1" d="M76.50001095980406,304.5000046566129A174,51,0,0,0,250.50001095980406,355.5000046566129"></path><path id="kity_path_49" fill="none" stroke="rgb(115, 161, 191)" stroke-width="1" d="M76.50001095980406,304.5000046566129A174,117,0,0,0,250.50001095980406,421.5000046566129"></path></g><g id="minder_node1"><path id="node_outline1" fill="rgb(115, 161, 191)" stroke="rgb(115, 161, 191)" d="M25.500010959804058,284.5000046566129h102a5,5,0,0,1,5,5v30a5,5,0,0,1,-5,5h-102a5,5,0,0,1,-5,-5v-30a5,5,0,0,1,5,-5z" stroke-width="3"></path><g id="node_text1" fill="white"><text id="kity_text_22" text-rendering="inherit" font-size="16" dy=".8em" y="294.1000046208501" x="44.50001095980406">设计模式</text></g></g><g id="kity_g_12"><path id="kity_path_13" fill="none" stroke="none" d="M44.50001095980406,304.5000046566129h0v0h0z"></path></g><g id="kity_g_14"><path id="kity_path_15" fill="none" stroke="none" d="M44.50001095980406,304.5000046566129h0v0h0z"></path><path id="kity_path_16" fill="none" stroke="none"></path></g><g id="minder_node2"><g id="node_expander8" style="cursor: pointer;"><path id="kity_path_102" fill="white" stroke="gray" d="M251.50001395493746,187.500002913177A6,6,0,1,1,239.50001395493746,187.500002913177A6,6,0,1,1,251.50001395493746,187.500002913177"></path><path id="kity_path_103" fill="none" stroke="gray" d="M241.00001395493746,187.500002913177L250.00001395493746,187.500002913177"></path></g><path id="node_outline9" fill="rgb(238, 243, 246)" stroke="rgb(115, 161, 191)" d="M255.5000143572688,174.500002913177h105a3,3,0,0,1,3,3v20a3,3,0,0,1,-3,3h-105a3,3,0,0,1,-3,-3v-20a3,3,0,0,1,3,-3z" stroke-width="1"></path><g id="node_text9" fill="black"><text id="kity_text_65" text-rendering="inherit" font-size="14" dy=".8em" y="178.40000288188457" x="272.5000143572688">创建型模式</text></g></g><g id="minder_node3"><g id="node_expander4" style="cursor: pointer;"><path id="kity_path_90" fill="white" stroke="gray" d="M403.50001621991396,83.50000136345625A6,6,0,1,1,391.50001621991396,83.50000136345625A6,6,0,1,1,403.50001621991396,83.50000136345625"></path><path id="kity_path_91" fill="none" stroke="gray" d="M393.00001621991396,83.50000136345625L402.00001621991396,83.50000136345625"></path></g><path id="node_outline5" fill="none" stroke="none" d="M408.50001645833254,72.50000136345625h59a5,5,0,0,1,5,5v12a5,5,0,0,1,-5,5h-59a5,5,0,0,1,-5,-5v-12a5,5,0,0,1,5,-5z"></path><g id="node_text5" fill="black"><text id="kity_text_57" text-rendering="inherit" font-size="12" dy=".8em" y="75.70000133663416" x="413.50001645833254">工厂模式</text></g></g><g id="minder_node4"><g id="node_expander1" style="cursor: pointer;" display="none"><path id="kity_path_81" fill="white" stroke="gray" d="M512.5000178441405,31.500000588595867A6,6,0,1,1,500.50001784414053,31.500000588595867A6,6,0,1,1,512.5000178441405,31.500000588595867"></path><path id="kity_path_82" fill="none" stroke="gray"></path></g><path id="node_outline2" fill="none" stroke="none" d="M517.5000180825591,20.500000588595867h84a5,5,0,0,1,5,5v12a5,5,0,0,1,-5,5h-84a5,5,0,0,1,-5,-5v-12a5,5,0,0,1,5,-5z" stroke-width="3"></path><g id="node_text2" fill="black"><text id="kity_text_51" text-rendering="inherit" font-size="12" dy=".8em" y="23.700000561773777" x="522.5000180825591">简单工厂模式</text></g></g><g id="minder_node5"><g id="node_expander2" style="cursor: pointer;" display="none"><path id="kity_path_84" fill="white" stroke="gray" d="M512.5000178441405,83.50000136345625A6,6,0,1,1,500.50001784414053,83.50000136345625A6,6,0,1,1,512.5000178441405,83.50000136345625"></path><path id="kity_path_85" fill="none" stroke="gray" d="M502.00001784414053,83.50000136345625L511.00001784414053,83.50000136345625"></path></g><path id="node_outline3" fill="none" stroke="none" d="M517.5000180825591,72.50000136345625h130a5,5,0,0,1,5,5v12a5,5,0,0,1,-5,5h-130a5,5,0,0,1,-5,-5v-12a5,5,0,0,1,5,-5z" stroke-width="3"></path><g id="node_text3" fill="black"><text id="kity_text_53" text-rendering="inherit" font-size="12" dy=".8em" y="75.70000133663416" x="522.5000180825591">工厂方法模式（多态）</text></g></g><g id="minder_node6"><g id="node_expander3" style="cursor: pointer;" display="none"><path id="kity_path_87" fill="white" stroke="gray" d="M512.5000178441405,135.50000213831663A6,6,0,1,1,500.50001784414053,135.50000213831663A6,6,0,1,1,512.5000178441405,135.50000213831663"></path><path id="kity_path_88" fill="none" stroke="gray"></path></g><path id="node_outline4" fill="none" stroke="none" d="M517.5000180825591,124.50000213831663h84a5,5,0,0,1,5,5v12a5,5,0,0,1,-5,5h-84a5,5,0,0,1,-5,-5v-12a5,5,0,0,1,5,-5z"></path><g id="node_text4" fill="black"><text id="kity_text_55" text-rendering="inherit" font-size="12" dy=".8em" y="127.70000211149454" x="522.5000180825591">抽象工厂模式</text></g></g><g id="minder_node7"><g id="node_expander5" style="cursor: pointer;" display="none"><path id="kity_path_93" fill="white" stroke="gray" d="M403.50001621991396,187.500002913177A6,6,0,1,1,391.50001621991396,187.500002913177A6,6,0,1,1,403.50001621991396,187.500002913177"></path><path id="kity_path_94" fill="none" stroke="gray"></path></g><path id="node_outline6" fill="none" stroke="none" d="M408.50001645833254,176.500002913177h119a5,5,0,0,1,5,5v12a5,5,0,0,1,-5,5h-119a5,5,0,0,1,-5,-5v-12a5,5,0,0,1,5,-5z"></path><g id="node_text6" fill="black"><text id="kity_text_59" text-rendering="inherit" font-size="12" dy=".8em" y="179.70000288635492" x="413.50001645833254">原型模式（高性能）</text></g></g><g id="minder_node8"><g id="node_expander6" style="cursor: pointer;" display="none"><path id="kity_path_96" fill="white" stroke="gray" d="M403.50001621991396,239.5000036880374A6,6,0,1,1,391.50001621991396,239.5000036880374A6,6,0,1,1,403.50001621991396,239.5000036880374"></path><path id="kity_path_97" fill="none" stroke="gray"></path></g><path id="node_outline7" fill="none" stroke="none" d="M408.50001645833254,228.5000036880374h166a5,5,0,0,1,5,5v12a5,5,0,0,1,-5,5h-166a5,5,0,0,1,-5,-5v-12a5,5,0,0,1,5,-5z"></path><g id="node_text7" fill="black"><text id="kity_text_61" text-rendering="inherit" font-size="12" dy=".8em" y="231.7000036612153" x="413.50001645833254">生成器模式（构建过程可控）</text></g></g><g id="minder_node9"><g id="node_expander7" style="cursor: pointer;" display="none"><path id="kity_path_99" fill="white" stroke="gray" d="M403.50001621991396,291.5000044628978A6,6,0,1,1,391.50001621991396,291.5000044628978A6,6,0,1,1,403.50001621991396,291.5000044628978"></path><path id="kity_path_100" fill="none" stroke="gray"></path></g><path id="node_outline8" fill="none" stroke="none" d="M408.50001645833254,280.5000044628978h274a5,5,0,0,1,5,5v12a5,5,0,0,1,-5,5h-274a5,5,0,0,1,-5,-5v-12a5,5,0,0,1,5,-5z"></path><g id="node_text8" fill="black"><text id="kity_text_63" text-rendering="inherit" font-size="12" dy=".8em" y="283.7000044360757" x="413.50001645833254">单例模式（一个类只有一个实例，且全局可访问）</text></g></g><g id="minder_node10"><g id="node_expander9" style="cursor: pointer;" display="none"><path id="kity_path_105" fill="white" stroke="gray" d="M251.50001395493746,355.5000054165721A6,6,0,1,1,239.50001395493746,355.5000054165721A6,6,0,1,1,251.50001395493746,355.5000054165721"></path><path id="kity_path_106" fill="none" stroke="gray"></path></g><path id="node_outline10" fill="rgb(238, 243, 246)" stroke="rgb(115, 161, 191)" d="M255.5000143572688,342.5000054165721h106a3,3,0,0,1,3,3v20a3,3,0,0,1,-3,3h-106a3,3,0,0,1,-3,-3v-20a3,3,0,0,1,3,-3z" stroke-width="1"></path><g id="node_text10" fill="black"><text id="kity_text_67" text-rendering="inherit" font-size="14" dy=".8em" y="346.40000538527966" x="272.5000143572688">结构型模式</text></g></g><g id="minder_node11"><g id="node_expander10" style="cursor: pointer;" display="none"><path id="kity_path_108" fill="white" stroke="gray" d="M251.50001395493746,421.50000640004873A6,6,0,1,1,239.50001395493746,421.50000640004873A6,6,0,1,1,251.50001395493746,421.50000640004873"></path><path id="kity_path_109" fill="none" stroke="gray"></path></g><path id="node_outline11" fill="rgb(238, 243, 246)" stroke="rgb(115, 161, 191)" d="M255.5000143572688,408.50000640004873h105a3,3,0,0,1,3,3v20a3,3,0,0,1,-3,3h-105a3,3,0,0,1,-3,-3v-20a3,3,0,0,1,3,-3z" stroke-width="1"></path><g id="node_text11" fill="black"><text id="kity_text_69" text-rendering="inherit" font-size="14" dy=".8em" y="412.4000063687563" x="272.5000143572688">行为型模式</text></g></g></g></g></svg>